<?xml version="1.0" standalone="no"?>
<!DOCTYPE svg PUBLIC "-//W3C//DTD SVG 20010904//EN"
 "http://www.w3.org/TR/2001/REC-SVG-20010904/DTD/svg10.dtd">
<svg version="1.0" xmlns="http://www.w3.org/2000/svg"
 width="700.000000pt" height="700.000000pt" viewBox="0 0 700.000000 700.000000"
 preserveAspectRatio="xMidYMid meet">
<metadata>
Created by potrace 1.14, written by Peter Selinger 2001-2017
</metadata>
<g transform="translate(0.000000,700.000000) scale(0.100000,-0.100000)"
fill="#000000" stroke="none">
<path d="M3350 5530 c-227 -61 -398 -212 -497 -440 -58 -135 -67 -187 -65
-371 1 -185 14 -261 68 -428 53 -163 148 -347 275 -535 396 -585 458 -703 489
-939 27 -200 -55 -409 -185 -472 -49 -25 -64 -27 -129 -23 -92 6 -134 29 -231
127 l-71 70 -99 -79 c-55 -44 -101 -84 -103 -89 -6 -19 97 -157 169 -227 185
-176 361 -243 571 -214 321 44 556 277 625 619 21 106 21 332 -1 443 -46 239
-150 456 -396 828 -301 454 -341 525 -390 693 -76 263 -7 538 155 613 116 55
238 19 364 -105 l68 -67 99 79 c54 43 100 84 102 91 5 21 -109 165 -190 242
-141 133 -275 192 -453 200 -79 3 -116 0 -175 -16z"/>
<path d="M2710 1233 l0 -53 530 0 c523 0 530 0 530 -20 0 -20 -7 -20 -530 -20
l-530 0 0 -35 0 -35 530 0 c523 0 530 0 530 -20 0 -20 -7 -20 -530 -20 l-530
0 0 -37 0 -38 530 3 530 2 0 -25 0 -25 -530 0 -530 0 0 -300 0 -300 170 0 170
0 29 -57 c56 -111 150 -193 269 -234 47 -17 77 -20 168 -17 104 3 114 5 186
40 92 46 174 125 214 208 l29 59 173 0 172 1 0 60 0 60 -530 0 -530 0 0 25 0
25 530 0 530 0 0 35 0 35 -530 0 c-523 0 -530 0 -530 20 0 20 7 20 530 20
l530 0 0 35 0 35 -530 0 -530 0 0 25 0 25 530 -2 530 -3 0 290 0 290 -790 0
-790 0 0 -52z"/>
</g>
</svg>
